<?xml version="1.0" encoding="UTF-8"?>
<svg width="258px" height="144px" viewBox="0 0 258 144" version="1.1" xmlns="http://www.w3.org/2000/svg" xmlns:xlink="http://www.w3.org/1999/xlink">
    <!-- Generator: Sketch 48.2 (47327) - http://www.bohemiancoding.com/sketch -->
    <title>logo/white/text</title>
    <desc>Created with Sketch.</desc>
    <defs></defs>
    <g id="Logos" stroke="none" stroke-width="1" fill="none" fill-rule="evenodd">
        <g id="logo/white/text" fill="#FFFFFF">
            <g id="emLogo">
                <g>
                    <path d="M104,86.7945205 L104,43.9693921 C104,31.0433857 108.318871,20.4837738 116.166216,12.2902397 C124.013561,4.09670561 134.193748,0 146.707081,0 C161.55341,0 172.970772,6.81607054 180.95951,20.4484161 C185.837589,13.102489 191.069074,7.85799945 196.654122,4.71479024 C202.239169,1.57158103 209.132004,0 217.332833,0 C230.341044,0 240.309143,4.09670561 247.23743,12.2902397 C254.165716,20.4837738 258,31.9442723 258,47.3424658 L258,144 L214.575671,144 L214.575671,53.2864647 C214.564103,47.3424658 214.564103,41.4246575 208.641026,41.4246575 C202.717949,41.4246575 202.717949,47.3424658 202.717949,53.2864647 L202.717949,86.7945205 L159.282051,86.7945205 L159.282051,53.2864647 C159.282051,47.3424658 159.282051,41.4246575 153.358974,41.4246575 C147.435897,41.4246575 147.435897,47.3424658 147.435897,53.2864647 L147.435897,86.7945205 L104,86.7945205 Z" id="letterM"></path>
                    <path d="M84.7475728,57.2054795 L84.7475728,86.7945205 L53.2910935,86.7945205 C47.3009709,86.7945205 41.3883495,86.7945205 41.3883495,94.6849315 C41.3883495,102.575342 47.3009709,102.575342 53.2910935,102.575342 L203,102.575342 L203,144 L49.0120127,144 C33.1333115,144 20.9951086,140.825701 12.59704,133.232556 C4.19897133,125.63941 0,114.673659 0,100.334974 L0,43.6515411 C0,29.8072938 3.96961576,19.0710998 11.9089664,11.442637 C19.848317,3.81417419 31.0161693,0 45.4128584,0 L92.631068,0 L92.631068,41.4246575 L55.2113321,41.4246575 C49.2718447,41.4246575 43.3592233,41.4246575 43.3592233,49.3150685 C43.3592233,57.2054795 49.2718447,57.2054795 55.184466,57.2054795 L84.7475728,57.2054795 Z" id="letterE"></path>
                </g>
            </g>
        </g>
    </g>
</svg>