<?xml version="1.0" encoding="UTF-8"?>
<svg width="200px" height="200px" viewBox="0 0 200 200" version="1.1" xmlns="http://www.w3.org/2000/svg" xmlns:xlink="http://www.w3.org/1999/xlink">
    <!-- Generator: Sketch 48.2 (47327) - http://www.bohemiancoding.com/sketch -->
    <title>logo/coral/circle</title>
    <desc>Created with Sketch.</desc>
    <defs></defs>
    <g id="Logos" stroke="none" stroke-width="1" fill="none" fill-rule="evenodd">
        <g id="logo/coral/circle">
            <g id="circleLogo">
                <g>
                    <circle id="circle" fill="#FF7F7F" cx="100" cy="100" r="100"></circle>
                    <path d="M88,108 L88,86.2900391 C88,79.7372719 90.1874801,74.3841354 94.1621094,70.2304688 C98.1367386,66.0768021 103.292937,64 109.630859,64 C117.150428,64 122.933248,67.4553691 126.979492,74.3662109 C129.450208,70.642234 132.099921,67.9835692 134.928711,66.3901367 C137.757501,64.7967043 141.248677,64 145.402344,64 C151.990918,64 157.039696,66.0768021 160.548828,70.2304688 C164.05796,74.3841354 166,80.1939714 166,88 L166,137 L144.005859,137 L144.005859,91.0132772 C144,88 144,85 141,85 C138,85 138,88 138,91.0132772 L138,108 L116,108 L116,91.0132772 C116,88 116,85 113,85 C110,85 110,88 110,91.0132772 L110,108 L88,108 Z" id="letterM" fill="#FFFFFF"></path>
                    <path d="M78,93 L78,108 L62.0393233,108 C59,108 56,108 56,112 C56,116 59,116 62.0393233,116 L138,116 L138,137 L59.8681641,137 C51.8114832,137 45.6526906,135.390807 41.3916016,131.541504 C37.1305125,127.692201 35,122.133174 35,114.864258 L35,86.1289062 C35,79.110642 37.01414,73.6679881 41.0424805,69.8007812 C45.0708209,65.9335744 50.7372682,64 58.0419922,64 L82,64 L82,85 L63.0136315,85 C60,85 57,85 57,89 C57,93 60,93 63,93 L78,93 Z" id="letterE" fill="#FFFFFF"></path>
                </g>
            </g>
        </g>
    </g>
</svg>